<mxfile host="app.diagrams.net" modified="2023-10-04T12:15:31.683Z" agent="Mozilla/5.0 (Windows NT 10.0; Win64; x64) AppleWebKit/537.36 (KHTML, like Gecko) Chrome/109.0.0.0 Safari/537.36" version="22.0.2" etag="R3zFtyVkd5T2wfGUMjJn" type="github">
  <diagram name="PÃ¡gina-1" id="Ebe79JdwVNreJXkhqZce">
    <mxGraphModel>
      <root>
        <mxCell id="0" />
        <mxCell id="1" parent="0" />
      </root>
    </mxGraphModel>
  </diagram>
</mxfile>
